<svg width="25" height="33" viewBox="0 0 25 33" fill="none" xmlns="http://www.w3.org/2000/svg">
<path fill-rule="evenodd" clip-rule="evenodd" d="M4 0V3H15V0H4ZM14 1H5V2H14V1Z" fill="#1C1C1C"/>
<path fill-rule="evenodd" clip-rule="evenodd" d="M17 0H16V2.80573H17C17.6821 2.80573 18.3576 2.94009 18.9878 3.20112C19.618 3.46216 20.1906 3.84477 20.6729 4.3271C21.1552 4.80943 21.5378 5.38204 21.7989 6.01224C22.0599 6.64244 22.1943 7.31788 22.1943 8C22.1943 8.68212 22.0599 9.35756 21.7989 9.98776C21.5378 10.618 21.1552 11.1906 20.6729 11.6729C20.1906 12.1552 19.618 12.5378 18.9878 12.7989C18.3576 13.0599 17.6821 13.1943 17 13.1943H16L16 16H17C18.0506 16 19.0909 15.7931 20.0615 15.391C21.0321 14.989 21.914 14.3997 22.6569 13.6569C23.3997 12.914 23.989 12.0321 24.391 11.0615C24.7931 10.0909 25 9.05058 25 8C25 6.94943 24.7931 5.90914 24.391 4.93853C23.989 3.96793 23.3997 3.08602 22.6569 2.34315C21.914 1.60028 21.0321 1.011 20.0615 0.608964C19.0909 0.206926 18.0506 0 17 0ZM19.3704 2.27724C18.6189 1.96595 17.8134 1.80573 17 1.80573V1C17.3354 1 17.6695 1.0241 18 1.0718C18.5753 1.15484 19.1393 1.3094 19.6788 1.53284C20.5281 1.88463 21.2997 2.40024 21.9497 3.05025C22.5998 3.70026 23.1154 4.47194 23.4672 5.32122C23.8189 6.1705 24 7.08075 24 8C24 8.91925 23.8189 9.82951 23.4672 10.6788C23.1154 11.5281 22.5998 12.2997 21.9497 12.9497C21.2997 13.5998 20.5281 14.1154 19.6788 14.4672C19.1393 14.6906 18.5753 14.8452 18 14.9282C17.6695 14.9759 17.3354 15 17 15V14.1943C17.8134 14.1943 18.6189 14.034 19.3704 13.7228C20.122 13.4115 20.8048 12.9552 21.38 12.38C21.9552 11.8048 22.4115 11.122 22.7228 10.3704C23.034 9.61892 23.1943 8.81344 23.1943 8C23.1943 7.18656 23.034 6.38108 22.7228 5.62956C22.4115 4.87803 21.9552 4.19518 21.38 3.61999C20.8048 3.0448 20.122 2.58854 19.3704 2.27724Z" fill="#1C1C1C"/>
<path fill-rule="evenodd" clip-rule="evenodd" d="M17 17H16V19.8057H17C17.6821 19.8057 18.3576 19.9401 18.9878 20.2011C19.618 20.4622 20.1906 20.8448 20.6729 21.3271C21.1552 21.8094 21.5378 22.382 21.7989 23.0122C22.0599 23.6424 22.1943 24.3179 22.1943 25C22.1943 25.6821 22.0599 26.3576 21.7989 26.9878C21.5378 27.618 21.1552 28.1906 20.6729 28.6729C20.1906 29.1552 19.618 29.5378 18.9878 29.7989C18.3576 30.0599 17.6821 30.1943 17 30.1943H16L16 33H17C18.0506 33 19.0909 32.7931 20.0615 32.391C21.0321 31.989 21.914 31.3997 22.6569 30.6569C23.3997 29.914 23.989 29.0321 24.391 28.0615C24.7931 27.0909 25 26.0506 25 25C25 23.9494 24.7931 22.9091 24.391 21.9385C23.989 20.9679 23.3997 20.086 22.6569 19.3431C21.914 18.6003 21.0321 18.011 20.0615 17.609C19.0909 17.2069 18.0506 17 17 17ZM19.3704 19.2772C18.6189 18.966 17.8134 18.8057 17 18.8057V18C17.3354 18 17.6695 18.0241 18 18.0718C18.5753 18.1548 19.1393 18.3094 19.6788 18.5328C20.5281 18.8846 21.2997 19.4002 21.9497 20.0503C22.5998 20.7003 23.1154 21.4719 23.4672 22.3212C23.8189 23.1705 24 24.0807 24 25C24 25.9193 23.8189 26.8295 23.4672 27.6788C23.1154 28.5281 22.5998 29.2997 21.9497 29.9497C21.2997 30.5998 20.5281 31.1154 19.6788 31.4672C19.1393 31.6906 18.5753 31.8452 18 31.9282C17.6695 31.9759 17.3354 32 17 32V31.1943C17.8134 31.1943 18.6189 31.034 19.3704 30.7228C20.122 30.4115 20.8048 29.9552 21.38 29.38C21.9552 28.8048 22.4115 28.122 22.7228 27.3704C23.034 26.6189 23.1943 25.8134 23.1943 25C23.1943 24.1866 23.034 23.3811 22.7228 22.6296C22.4115 21.878 21.9552 21.1952 21.38 20.62C20.8048 20.0448 20.122 19.5885 19.3704 19.2772Z" fill="#1C1C1C"/>
<path fill-rule="evenodd" clip-rule="evenodd" d="M0 30H15V33H0V30ZM1 31H14V32H1V31Z" fill="#1C1C1C"/>
<path fill-rule="evenodd" clip-rule="evenodd" d="M7 16.5L15.25 18.6651V14.3349L7 16.5ZM10.9395 16.5L14.25 17.3688V15.6312L10.9395 16.5Z" fill="#1C1C1C"/>
<path fill-rule="evenodd" clip-rule="evenodd" d="M0 0V27.5H17.5V24.5H3V0H0ZM1 26.5V1H2V25.5H16.5V26.5H1Z" fill="#1C1C1C"/>
</svg>
